<?xml version="1.0" encoding="UTF-8"?><svg xmlns="http://www.w3.org/2000/svg" xmlns:xlink="http://www.w3.org/1999/xlink" fill-opacity="1" color-rendering="auto" color-interpolation="auto" text-rendering="auto" stroke="black" stroke-linecap="square" width="692" stroke-miterlimit="10" shape-rendering="auto" stroke-opacity="1" fill="black" stroke-dasharray="none" font-weight="normal" stroke-width="1" height="320" font-family="'Dialog'" font-style="normal" stroke-linejoin="miter" font-size="12px" stroke-dashoffset="0" image-rendering="auto">
  <!--Generated by ySVG 2.5-->
  <defs id="genericDefs"/>
  <g>
    <defs id="defs1">
      <linearGradient x1="277.5" gradientUnits="userSpaceOnUse" x2="277.5" y1="279" y2="296" id="linearGradient1" spreadMethod="pad">
        <stop stop-opacity="1" stop-color="rgb(255,230,191)" offset="0%"/>
        <stop stop-opacity="1" stop-color="rgb(255,173,51)" offset="100%"/>
      </linearGradient>
      <linearGradient x1="545" gradientUnits="userSpaceOnUse" x2="545" y1="279" y2="296" id="linearGradient2" spreadMethod="pad">
        <stop stop-opacity="1" stop-color="rgb(255,230,191)" offset="0%"/>
        <stop stop-opacity="1" stop-color="rgb(255,173,51)" offset="100%"/>
      </linearGradient>
      <linearGradient x1="277.5" gradientUnits="userSpaceOnUse" x2="277.5" y1="101.6" y2="118.6" id="linearGradient3" spreadMethod="pad">
        <stop stop-opacity="1" stop-color="rgb(255,230,191)" offset="0%"/>
        <stop stop-opacity="1" stop-color="rgb(255,173,51)" offset="100%"/>
      </linearGradient>
      <linearGradient x1="812.5" gradientUnits="userSpaceOnUse" x2="812.5" y1="275" y2="296" id="linearGradient4" spreadMethod="pad">
        <stop stop-opacity="1" stop-color="rgb(255,230,191)" offset="0%"/>
        <stop stop-opacity="1" stop-color="rgb(255,173,51)" offset="100%"/>
      </linearGradient>
      <clipPath clipPathUnits="userSpaceOnUse" id="clipPath1">
        <path d="M0 0 L692 0 L692 320 L0 320 L0 0 Z"/>
      </clipPath>
      <clipPath clipPathUnits="userSpaceOnUse" id="clipPath2">
        <path d="M262 87 L954 87 L954 407 L262 407 L262 87 Z"/>
      </clipPath>
    </defs>
    <g fill="white" text-rendering="geometricPrecision" shape-rendering="geometricPrecision" transform="translate(-262,-87)" stroke="white">
      <rect x="262" width="692" height="320" y="87" clip-path="url(#clipPath2)" stroke="none"/>
    </g>
    <g fill="rgb(255,153,0)" text-rendering="geometricPrecision" shape-rendering="geometricPrecision" transform="matrix(1,0,0,1,-262,-87)" stroke="rgb(255,153,0)">
      <path d="M277.5 294 L403.5 294 L403.5 307 Q403.5 310 400.5 310 L280.5 310 Q277.5 310 277.5 307 Z" stroke="none" clip-path="url(#clipPath2)"/>
      <path fill="url(#linearGradient1)" d="M277.5 283 Q277.5 280 280.5 280 L400.5 280 Q403.5 280 403.5 283 L403.5 295 L277.5 295 Z" clip-path="url(#clipPath2)" stroke="none"/>
      <path fill="none" d="M279.5 283 Q279.5 282 280.5 282 L400.5 282 Q401.5 282 401.5 283 L401.5 307 Q401.5 308 400.5 308 L280.5 308 Q279.5 308 279.5 307 Z" stroke-width="2" clip-path="url(#clipPath2)" stroke="rgb(255,240,217)"/>
      <path fill="none" d="M279.5 283 Q279.5 282 280.5 282 L400.5 282 Q401.5 282 401.5 283 L401.5 307 Q401.5 308 400.5 308 L280.5 308 Q279.5 308 279.5 307 Z" clip-path="url(#clipPath2)"/>
    </g>
    <g text-rendering="geometricPrecision" stroke-miterlimit="1.45" shape-rendering="geometricPrecision" font-family="sans-serif" transform="matrix(1,0,0,1,-262,-87)" stroke-linecap="butt">
      <text x="310.0312" xml:space="preserve" y="299.1543" clip-path="url(#clipPath2)" stroke="none">Generator</text>
    </g>
    <g fill="rgb(255,153,0)" text-rendering="geometricPrecision" shape-rendering="geometricPrecision" transform="matrix(1,0,0,1,-262,-87)" stroke="rgb(255,153,0)">
      <path d="M545 294 L671 294 L671 307 Q671 310 668 310 L548 310 Q545 310 545 307 Z" stroke="none" clip-path="url(#clipPath2)"/>
      <path fill="url(#linearGradient2)" d="M545 283 Q545 280 548 280 L668 280 Q671 280 671 283 L671 295 L545 295 Z" clip-path="url(#clipPath2)" stroke="none"/>
      <path fill="none" d="M547 283 Q547 282 548 282 L668 282 Q669 282 669 283 L669 307 Q669 308 668 308 L548 308 Q547 308 547 307 Z" stroke-width="2" clip-path="url(#clipPath2)" stroke="rgb(255,240,217)"/>
      <path fill="none" d="M547 283 Q547 282 548 282 L668 282 Q669 282 669 283 L669 307 Q669 308 668 308 L548 308 Q547 308 547 307 Z" clip-path="url(#clipPath2)"/>
    </g>
    <g text-rendering="geometricPrecision" stroke-miterlimit="1.45" shape-rendering="geometricPrecision" font-family="sans-serif" transform="matrix(1,0,0,1,-262,-87)" stroke-linecap="butt">
      <text x="567.6729" xml:space="preserve" y="299.1543" clip-path="url(#clipPath2)" stroke="none">Discriminator</text>
    </g>
    <g fill="rgb(255,153,0)" text-rendering="geometricPrecision" shape-rendering="geometricPrecision" transform="matrix(1,0,0,1,-262,-87)" stroke="rgb(255,153,0)">
      <path d="M277.5 116.6 L403.5 116.6 L403.5 129.6 Q403.5 132.6 400.5 132.6 L280.5 132.6 Q277.5 132.6 277.5 129.6 Z" stroke="none" clip-path="url(#clipPath2)"/>
      <path fill="url(#linearGradient3)" d="M277.5 105.6 Q277.5 102.6 280.5 102.6 L400.5 102.6 Q403.5 102.6 403.5 105.6 L403.5 117.6 L277.5 117.6 Z" clip-path="url(#clipPath2)" stroke="none"/>
      <path fill="none" d="M279.5 105.6 Q279.5 104.6 280.5 104.6 L400.5 104.6 Q401.5 104.6 401.5 105.6 L401.5 129.6 Q401.5 130.6 400.5 130.6 L280.5 130.6 Q279.5 130.6 279.5 129.6 Z" stroke-width="2" clip-path="url(#clipPath2)" stroke="rgb(255,240,217)"/>
      <path fill="none" d="M279.5 105.6 Q279.5 104.6 280.5 104.6 L400.5 104.6 Q401.5 104.6 401.5 105.6 L401.5 129.6 Q401.5 130.6 400.5 130.6 L280.5 130.6 Q279.5 130.6 279.5 129.6 Z" clip-path="url(#clipPath2)"/>
    </g>
    <g text-rendering="geometricPrecision" stroke-miterlimit="1.45" shape-rendering="geometricPrecision" font-family="sans-serif" transform="matrix(1,0,0,1,-262,-87)" stroke-linecap="butt">
      <text x="311.874" xml:space="preserve" y="121.7543" clip-path="url(#clipPath2)" stroke="none">Real data</text>
    </g>
    <g fill="rgb(255,153,0)" text-rendering="geometricPrecision" shape-rendering="geometricPrecision" transform="matrix(1,0,0,1,-262,-87)" stroke="rgb(255,153,0)">
      <path d="M812.5 294 L938.5 294 L938.5 311 Q938.5 314 935.5 314 L815.5 314 Q812.5 314 812.5 311 Z" stroke="none" clip-path="url(#clipPath2)"/>
      <path fill="url(#linearGradient4)" d="M812.5 279 Q812.5 276 815.5 276 L935.5 276 Q938.5 276 938.5 279 L938.5 295 L812.5 295 Z" clip-path="url(#clipPath2)" stroke="none"/>
      <path fill="none" d="M814.5 279 Q814.5 278 815.5 278 L935.5 278 Q936.5 278 936.5 279 L936.5 311 Q936.5 312 935.5 312 L815.5 312 Q814.5 312 814.5 311 Z" stroke-width="2" clip-path="url(#clipPath2)" stroke="rgb(255,240,217)"/>
      <path fill="none" d="M814.5 279 Q814.5 278 815.5 278 L935.5 278 Q936.5 278 936.5 279 L936.5 311 Q936.5 312 935.5 312 L815.5 312 Q814.5 312 814.5 311 Z" clip-path="url(#clipPath2)"/>
    </g>
    <g text-rendering="geometricPrecision" stroke-miterlimit="1.45" shape-rendering="geometricPrecision" font-family="sans-serif" transform="matrix(1,0,0,1,-262,-87)" stroke-linecap="butt">
      <text x="823.4219" xml:space="preserve" y="292.1699" clip-path="url(#clipPath2)" stroke="none">Problem agnostic</text>
      <text x="863.9102" xml:space="preserve" y="306.1387" clip-path="url(#clipPath2)" stroke="none">loss</text>
    </g>
    <g text-rendering="geometricPrecision" stroke-miterlimit="1.45" shape-rendering="geometricPrecision" transform="matrix(1,0,0,1,-262,-87)" stroke-linecap="butt">
      <path fill="none" d="M356.4677 280.0303 L357.2188 279.3262 L373.9375 265.7422 L390.6562 254.248 L407.375 244.8438 L424.0938 237.5293 L440.8125 232.3047 L457.5312 229.1699 L474.25 228.125 L490.9688 229.1699 L507.6875 232.3047 L524.4062 237.5293 L541.125 244.8438 L557.8438 254.248 L574.5625 265.7422 L585.8696 274.9292 L585.9425 274.9976" clip-path="url(#clipPath2)"/>
    </g>
    <g text-rendering="geometricPrecision" stroke-miterlimit="1.45" shape-rendering="geometricPrecision" transform="matrix(1,0,0,1,-262,-87)" stroke-linecap="butt">
      <path d="M592.1092 280.0938 L586.0443 268.5953 L585.1716 274.3606 L579.674 276.3036 Z" stroke="none" clip-path="url(#clipPath2)"/>
      <text x="438.2192" xml:space="preserve" y="215.8779" clip-path="url(#clipPath2)" font-family="sans-serif" stroke="none">Tries to fool</text>
      <path fill="none" d="M592.0323 309.9697 L591.2812 310.6738 L574.5625 324.2578 L557.8438 335.752 L541.125 345.1562 L524.4062 352.4707 L507.6875 357.6953 L490.9688 360.8301 L474.25 361.875 L457.5312 360.8301 L440.8125 357.6953 L424.0938 352.4707 L407.375 345.1562 L390.6562 335.752 L373.9375 324.2578 L362.6304 315.0708 L362.5575 315.0024" clip-path="url(#clipPath2)" stroke="red"/>
      <path fill="red" d="M356.3908 309.9062 L362.4557 321.4048 L363.3283 315.6395 L368.826 313.6964 Z" clip-path="url(#clipPath2)" stroke="none"/>
      <text x="425.1778" xml:space="preserve" y="386.1579" clip-path="url(#clipPath2)" font-family="sans-serif" stroke="none">Backpropagation</text>
      <path fill="none" d="M403.467 110.348 L417.682 110.1105 L440.6375 111.7937 L462.207 115.5668 L482.3906 121.4297 L501.1883 129.3824 L518.6 139.425 L534.6257 151.5574 L549.2656 165.7797 L562.5195 182.0918 L574.3875 200.4937 L584.8695 220.9855 L593.9656 243.5672 L601.6758 268.2387 L602.6213 272.2396" clip-path="url(#clipPath2)"/>
      <path d="M604.4612 280.0251 L606.5673 267.1969 L602.3913 271.2664 L596.8354 269.4968 Z" clip-path="url(#clipPath2)" stroke="none"/>
      <path fill="none" d="M623.9677 280.0303 L624.7188 279.3262 L641.4375 265.7422 L658.1562 254.248 L674.875 244.8438 L691.5938 237.5293 L708.3125 232.3047 L725.0312 229.1699 L741.75 228.125 L758.4688 229.1699 L775.1875 232.3047 L791.9062 237.5293 L808.625 244.8438 L825.3438 254.248 L842.0625 265.7422 L848.4906 270.965" clip-path="url(#clipPath2)"/>
      <path d="M854.6995 276.0098 L848.5391 264.5621 L847.7145 270.3344 L842.2332 272.3232 Z" clip-path="url(#clipPath2)" stroke="none"/>
      <text x="679.631" xml:space="preserve" y="216.1579" clip-path="url(#clipPath2)" font-family="sans-serif" stroke="none">Tries to discriminate</text>
      <path fill="none" d="M854.6995 313.9902 L842.0625 324.2578 L825.3438 335.752 L808.625 345.1562 L791.9062 352.4707 L775.1875 357.6953 L758.4688 360.8301 L741.75 361.875 L725.0312 360.8301 L708.3125 357.6953 L691.5938 352.4707 L674.875 345.1562 L658.1562 335.752 L641.4375 324.2578 L630.1304 315.0708 L630.0575 315.0024" clip-path="url(#clipPath2)" stroke="red"/>
      <path fill="red" d="M623.8908 309.9062 L629.9557 321.4047 L630.8284 315.6394 L636.326 313.6964 Z" clip-path="url(#clipPath2)" stroke="none"/>
      <text x="689.1779" xml:space="preserve" y="387.1579" clip-path="url(#clipPath2)" font-family="sans-serif" stroke="none">Backpropagation</text>
    </g>
  </g>
</svg>
